<?xml version="1.0" encoding="iso-8859-1"?>
<!-- Generator: Adobe Illustrator 19.0.0, SVG Export Plug-In . SVG Version: 6.00 Build 0)  -->
<svg version="1.1" id="Layer_1" xmlns="http://www.w3.org/2000/svg" xmlns:xlink="http://www.w3.org/1999/xlink" x="0px" y="0px"
	 viewBox="0 0 503.607 503.607" style="enable-background:new 0 0 503.607 503.607;" xml:space="preserve">
<g transform="translate(1 1)">
	<polygon style="fill:#FD9808;" points="82.934,494.213 242.41,494.213 242.41,108.115 82.934,108.115 	"/>
	<polygon style="fill:#FFFFFF;" points="7.393,494.213 166.869,494.213 166.869,108.115 7.393,108.115 	"/>
	<polygon style="fill:#FFDD09;" points="32.574,494.213 217.229,494.213 217.229,108.115 32.574,108.115 	"/>
	<polygon style="fill:#FD9808;" points="242.41,494.213 494.213,494.213 494.213,7.393 242.41,7.393 	"/>
	<g>
		<polygon style="fill:#1CD759;" points="49.361,200.443 99.721,200.443 99.721,150.082 49.361,150.082 		"/>
		<polygon style="fill:#1CD759;" points="150.082,200.443 200.443,200.443 200.443,150.082 150.082,150.082 		"/>
		<polygon style="fill:#1CD759;" points="49.361,292.77 99.721,292.77 99.721,242.41 49.361,242.41 		"/>
		<polygon style="fill:#1CD759;" points="150.082,292.77 200.443,292.77 200.443,242.41 150.082,242.41 		"/>
		<polygon style="fill:#1CD759;" points="49.361,385.098 99.721,385.098 99.721,334.738 49.361,334.738 		"/>
		<polygon style="fill:#1CD759;" points="150.082,385.098 200.443,385.098 200.443,334.738 150.082,334.738 		"/>
		<polygon style="fill:#1CD759;" points="99.721,494.213 150.082,494.213 150.082,427.066 99.721,427.066 		"/>
	</g>
	<polygon style="fill:#FFDD09;" points="242.41,494.213 469.033,494.213 469.033,7.393 242.41,7.393 	"/>
	<g>
		<polygon style="fill:#1CD759;" points="292.77,292.77 343.131,292.77 343.131,242.41 292.77,242.41 		"/>
		<polygon style="fill:#1CD759;" points="393.492,292.77 443.852,292.77 443.852,242.41 393.492,242.41 		"/>
		<polygon style="fill:#1CD759;" points="292.77,385.098 343.131,385.098 343.131,334.738 292.77,334.738 		"/>
		<polygon style="fill:#1CD759;" points="393.492,385.098 443.852,385.098 443.852,334.738 393.492,334.738 		"/>
		<polygon style="fill:#1CD759;" points="317.951,494.213 368.311,494.213 368.311,427.066 317.951,427.066 		"/>
		<polygon style="fill:#1CD759;" points="368.311,494.213 418.672,494.213 418.672,427.066 368.311,427.066 		"/>
		<polygon style="fill:#1CD759;" points="401.885,49.361 401.885,108.115 334.738,108.115 334.738,49.361 301.164,49.361 
			301.164,200.443 334.738,200.443 334.738,141.689 401.885,141.689 401.885,200.443 435.459,200.443 435.459,49.361 		"/>
	</g>
	<path d="M242.41,502.607H7.393c-5.036,0-8.393-3.357-8.393-8.393V108.115c0-5.036,3.357-8.393,8.393-8.393H242.41
		c5.036,0,8.393,3.357,8.393,8.393v386.098C250.803,499.249,247.446,502.607,242.41,502.607z M15.787,485.82h218.23V116.508H15.787
		V485.82z"/>
	<path d="M494.213,502.607H242.41c-5.036,0-8.393-3.357-8.393-8.393V7.393c0-5.036,3.357-8.393,8.393-8.393h251.803
		c5.036,0,8.393,3.357,8.393,8.393v486.82C502.607,499.249,499.249,502.607,494.213,502.607z M250.803,485.82H485.82V15.787H250.803
		V485.82z"/>
	<path d="M99.721,208.836H49.361c-5.036,0-8.393-3.357-8.393-8.393v-50.361c0-5.036,3.357-8.393,8.393-8.393h50.361
		c5.036,0,8.393,3.357,8.393,8.393v50.361C108.115,205.479,104.757,208.836,99.721,208.836z M57.754,192.049h33.574v-33.574H57.754
		V192.049z"/>
	<path d="M200.443,208.836h-50.361c-5.036,0-8.393-3.357-8.393-8.393v-50.361c0-5.036,3.357-8.393,8.393-8.393h50.361
		c5.036,0,8.393,3.357,8.393,8.393v50.361C208.836,205.479,205.479,208.836,200.443,208.836z M158.475,192.049h33.574v-33.574
		h-33.574V192.049z"/>
	<path d="M343.131,301.164H292.77c-5.036,0-8.393-3.357-8.393-8.393V242.41c0-5.036,3.357-8.393,8.393-8.393h50.361
		c5.036,0,8.393,3.357,8.393,8.393v50.361C351.525,297.807,348.167,301.164,343.131,301.164z M301.164,284.377h33.574v-33.574
		h-33.574V284.377z"/>
	<path d="M443.852,301.164h-50.361c-5.036,0-8.393-3.357-8.393-8.393V242.41c0-5.036,3.357-8.393,8.393-8.393h50.361
		c5.036,0,8.393,3.357,8.393,8.393v50.361C452.246,297.807,448.888,301.164,443.852,301.164z M401.885,284.377h33.574v-33.574
		h-33.574V284.377z"/>
	<path d="M343.131,393.492H292.77c-5.036,0-8.393-3.357-8.393-8.393v-50.361c0-5.036,3.357-8.393,8.393-8.393h50.361
		c5.036,0,8.393,3.357,8.393,8.393v50.361C351.525,390.134,348.167,393.492,343.131,393.492z M301.164,376.705h33.574v-33.574
		h-33.574V376.705z"/>
	<path d="M443.852,393.492h-50.361c-5.036,0-8.393-3.357-8.393-8.393v-50.361c0-5.036,3.357-8.393,8.393-8.393h50.361
		c5.036,0,8.393,3.357,8.393,8.393v50.361C452.246,390.134,448.888,393.492,443.852,393.492z M401.885,376.705h33.574v-33.574
		h-33.574V376.705z"/>
	<path d="M99.721,301.164H49.361c-5.036,0-8.393-3.357-8.393-8.393V242.41c0-5.036,3.357-8.393,8.393-8.393h50.361
		c5.036,0,8.393,3.357,8.393,8.393v50.361C108.115,297.807,104.757,301.164,99.721,301.164z M57.754,284.377h33.574v-33.574H57.754
		V284.377z"/>
	<path d="M200.443,301.164h-50.361c-5.036,0-8.393-3.357-8.393-8.393V242.41c0-5.036,3.357-8.393,8.393-8.393h50.361
		c5.036,0,8.393,3.357,8.393,8.393v50.361C208.836,297.807,205.479,301.164,200.443,301.164z M158.475,284.377h33.574v-33.574
		h-33.574V284.377z"/>
	<path d="M99.721,393.492H49.361c-5.036,0-8.393-3.357-8.393-8.393v-50.361c0-5.036,3.357-8.393,8.393-8.393h50.361
		c5.036,0,8.393,3.357,8.393,8.393v50.361C108.115,390.134,104.757,393.492,99.721,393.492z M57.754,376.705h33.574v-33.574H57.754
		V376.705z"/>
	<path d="M200.443,393.492h-50.361c-5.036,0-8.393-3.357-8.393-8.393v-50.361c0-5.036,3.357-8.393,8.393-8.393h50.361
		c5.036,0,8.393,3.357,8.393,8.393v50.361C208.836,390.134,205.479,393.492,200.443,393.492z M158.475,376.705h33.574v-33.574
		h-33.574V376.705z"/>
	<path d="M150.082,502.607H99.721c-5.036,0-8.393-3.357-8.393-8.393v-67.148c0-5.036,3.357-8.393,8.393-8.393h50.361
		c5.036,0,8.393,3.357,8.393,8.393v67.148C158.475,499.249,155.118,502.607,150.082,502.607z M108.115,485.82h33.574v-50.361
		h-33.574V485.82z"/>
	<path d="M368.311,502.607h-50.361c-5.036,0-8.393-3.357-8.393-8.393v-67.148c0-5.036,3.357-8.393,8.393-8.393h50.361
		c5.036,0,8.393,3.357,8.393,8.393v67.148C376.705,499.249,373.348,502.607,368.311,502.607z M326.344,485.82h33.574v-50.361
		h-33.574V485.82z"/>
	<path d="M418.672,502.607h-50.361c-5.036,0-8.393-3.357-8.393-8.393v-67.148c0-5.036,3.357-8.393,8.393-8.393h50.361
		c5.036,0,8.393,3.357,8.393,8.393v67.148C427.066,499.249,423.708,502.607,418.672,502.607z M376.705,485.82h33.574v-50.361
		h-33.574V485.82z"/>
	<path d="M435.459,208.836h-33.574c-5.036,0-8.393-3.357-8.393-8.393v-50.361h-50.361v50.361c0,5.036-3.357,8.393-8.393,8.393
		h-33.574c-5.036,0-8.393-3.357-8.393-8.393V49.361c0-5.036,3.357-8.393,8.393-8.393h33.574c5.036,0,8.393,3.357,8.393,8.393v50.361
		h50.361V49.361c0-5.036,3.357-8.393,8.393-8.393h33.574c5.036,0,8.393,3.357,8.393,8.393v151.082
		C443.852,205.479,440.495,208.836,435.459,208.836z M410.279,192.049h16.787V57.754h-16.787v50.361
		c0,5.036-3.357,8.393-8.393,8.393h-67.148c-5.036,0-8.393-3.357-8.393-8.393V57.754h-16.787v134.295h16.787v-50.361
		c0-5.036,3.357-8.393,8.393-8.393h67.148c5.036,0,8.393,3.357,8.393,8.393V192.049z"/>
</g>
<g>
</g>
<g>
</g>
<g>
</g>
<g>
</g>
<g>
</g>
<g>
</g>
<g>
</g>
<g>
</g>
<g>
</g>
<g>
</g>
<g>
</g>
<g>
</g>
<g>
</g>
<g>
</g>
<g>
</g>
</svg>
